<?xml version="1.0" encoding="utf-8"?>
<!-- Generator: Adobe Illustrator 17.0.2, SVG Export Plug-In . SVG Version: 6.00 Build 0)  -->
<!DOCTYPE svg PUBLIC "-//W3C//DTD SVG 1.1//EN" "http://www.w3.org/Graphics/SVG/1.1/DTD/svg11.dtd">
<svg version="1.1" id="Ebene_1" xmlns="http://www.w3.org/2000/svg" xmlns:xlink="http://www.w3.org/1999/xlink" x="0px" y="0px"
	 width="10000px" height="7000px" viewBox="0 0 10000 7000" enable-background="new 0 0 10000 7000" xml:space="preserve">
<circle fill="#35A8E0" cx="3371.967" cy="3070.053" r="824.995"/>
<g>
	<path fill="#FFFFFF" d="M2953.625,2840.135c0,12.594-10.209,22.804-22.804,22.804h-152.527c-12.594,0-22.804-10.209-22.804-22.804
		v-163.559c0-12.594,10.209-22.803,22.804-22.803h152.527c12.594,0,22.804,10.209,22.804,22.803V2840.135z"/>
	<path fill="#FFFFFF" d="M3451.2,2840.135c0,12.594-10.209,22.804-22.803,22.804h-152.528c-12.594,0-22.804-10.209-22.804-22.804
		v-163.559c0-12.594,10.21-22.803,22.804-22.803h152.528c12.594,0,22.803,10.209,22.803,22.803V2840.135z"/>
	<path fill="#FFFFFF" d="M3201.955,3258.468c0,12.594-10.209,22.803-22.804,22.803h-152.527c-12.594,0-22.804-10.209-22.804-22.803
		v-581.891c0-12.594,10.209-22.803,22.804-22.803h152.527c12.594,0,22.804,10.209,22.804,22.803V3258.468z"/>
	<path fill="#FFFFFF" d="M3451.2,3516.207c0,12.594-10.209,22.803-22.803,22.803h-152.528c-12.594,0-22.804-10.209-22.804-22.803
		v-581.891c0-12.594,10.21-22.803,22.804-22.803h152.528c12.594,0,22.803,10.209,22.803,22.803V3516.207z"/>
	<path fill="#FFFFFF" d="M3954.482,3516.207c0,12.594-10.21,22.803-22.804,22.803h-152.528c-12.594,0-22.803-10.209-22.803-22.803
		v-581.891c0-12.594,10.209-22.803,22.803-22.803h152.528c12.594,0,22.804,10.209,22.804,22.803V3516.207z"/>
	<path fill="#FFFFFF" d="M3702.645,3307.041c0,12.594-10.209,22.803-22.803,22.803h-152.528c-12.594,0-22.804-10.209-22.804-22.803
		v-372.725c0-12.594,10.21-22.803,22.804-22.803h152.528c12.594,0,22.803,10.209,22.803,22.803V3307.041z"/>
</g>
<g>
	<defs>
		<path id="SVGID_1_" d="M8230.768,3665.875c0,121.686-98.646,220.332-220.332,220.332H6815.429
			c-121.686,0-220.332-98.646-220.332-220.332V2470.867c0-121.686,98.646-220.332,220.332-220.332h1195.007
			c121.686,0,220.332,98.646,220.332,220.332V3665.875z"/>
	</defs>
	<use xlink:href="#SVGID_1_"  overflow="visible" fill="#35A8E0"/>
	<clipPath id="SVGID_2_">
		<use xlink:href="#SVGID_1_"  overflow="visible"/>
	</clipPath>
	<rect x="6595.097" y="3503.141" clip-path="url(#SVGID_2_)" fill="#1D1D1B" width="1635.671" height="214.045"/>
</g>
<g>
	<path fill="#FFFFFF" d="M7011.571,2650.785c0,12.594-10.209,22.803-22.803,22.803H6836.24c-12.594,0-22.803-10.209-22.803-22.803
		v-163.559c0-12.594,10.209-22.804,22.803-22.804h152.528c12.594,0,22.803,10.209,22.803,22.804V2650.785z"/>
	<path fill="#FFFFFF" d="M7509.146,2650.785c0,12.594-10.21,22.803-22.804,22.803h-152.528c-12.594,0-22.803-10.209-22.803-22.803
		v-163.559c0-12.594,10.209-22.804,22.803-22.804h152.528c12.594,0,22.804,10.209,22.804,22.804V2650.785z"/>
	<path fill="#FFFFFF" d="M7259.901,3069.117c0,12.594-10.209,22.804-22.803,22.804H7084.57c-12.594,0-22.803-10.21-22.803-22.804
		v-581.891c0-12.594,10.209-22.804,22.803-22.804h152.528c12.594,0,22.803,10.21,22.803,22.804V3069.117z"/>
	<path fill="#FFFFFF" d="M7509.146,3326.856c0,12.594-10.209,22.804-22.803,22.804h-152.528c-12.594,0-22.803-10.21-22.803-22.804
		v-581.891c0-12.594,10.209-22.804,22.803-22.804h152.528c12.594,0,22.803,10.21,22.803,22.804V3326.856z"/>
	<path fill="#FFFFFF" d="M8012.428,3326.856c0,12.594-10.209,22.804-22.803,22.804h-152.528c-12.594,0-22.804-10.21-22.804-22.804
		v-581.891c0-12.594,10.21-22.804,22.804-22.804h152.528c12.594,0,22.803,10.21,22.803,22.804V3326.856z"/>
	<path fill="#FFFFFF" d="M7760.591,3117.69c0,12.594-10.209,22.804-22.804,22.804H7585.26c-12.594,0-22.804-10.21-22.804-22.804
		v-372.725c0-12.594,10.209-22.804,22.804-22.804h152.527c12.594,0,22.804,10.21,22.804,22.804V3117.69z"/>
</g>
<g>
	<path fill="#FFFFFF" d="M6833.583,3579.298v-16.667h73.867v16.667h-27.022v73.489h-19.824v-73.489H6833.583z"/>
	<path fill="#FFFFFF" d="M6997.858,3562.631v16.667h-47.604v19.32h43.689v15.405h-43.689v22.097h48.614v16.667h-68.438v-90.156
		H6997.858z"/>
	<path fill="#FFFFFF" d="M7069.831,3562.631l33.714,90.156h-20.581l-6.819-20.077h-33.714l-7.071,20.077h-19.951l34.093-90.156
		H7069.831z M7070.967,3617.937l-11.364-33.082h-0.252l-11.743,33.082H7070.967z"/>
	<path fill="#FFFFFF" d="M7151.906,3562.631l21.087,61.998h0.252l19.951-61.998h27.906v90.156h-18.562v-63.892h-0.252
		l-22.097,63.892h-15.279l-22.097-63.261h-0.252v63.261H7124v-90.156H7151.906z"/>
	<path fill="#FFFFFF" d="M7326.788,3562.631l21.087,61.998h0.252l19.951-61.998h27.906v90.156h-18.562v-63.892h-0.252
		l-22.097,63.892h-15.279l-22.097-63.261h-0.252v63.261h-18.562v-90.156H7326.788z"/>
	<path fill="#FFFFFF" d="M7470.987,3562.631l33.714,90.156h-20.582l-6.818-20.077h-33.714l-7.071,20.077h-19.951l34.093-90.156
		H7470.987z M7472.124,3617.937l-11.364-33.082h-0.252l-11.743,33.082H7472.124z"/>
	<path fill="#FFFFFF" d="M7544.855,3562.631l37.627,60.483h0.253v-60.483h18.562v90.156h-19.825l-37.502-60.356h-0.252v60.356
		h-18.562v-90.156H7544.855z"/>
	<path fill="#FFFFFF" d="M7676.3,3562.631l33.714,90.156h-20.582l-6.818-20.077H7648.9l-7.071,20.077h-19.951l34.093-90.156H7676.3z
		 M7677.437,3617.937l-11.364-33.082h-0.252l-11.743,33.082H7677.437z"/>
	<path fill="#FFFFFF" d="M7783.881,3652.093c-4.293,1.809-8.629,2.715-13.006,2.715c-6.903,0-13.112-1.2-18.625-3.599
		c-5.514-2.399-10.165-5.702-13.953-9.912c-3.788-4.209-6.692-9.155-8.713-14.837c-2.021-5.682-3.03-11.807-3.03-18.372
		c0-6.734,1.01-12.984,3.03-18.751c2.021-5.765,4.925-10.796,8.713-15.089c3.788-4.293,8.438-7.659,13.953-10.102
		c5.513-2.441,11.722-3.662,18.625-3.662c4.629,0,9.111,0.694,13.448,2.083c4.334,1.389,8.249,3.431,11.743,6.124
		c3.492,2.695,6.376,6.02,8.649,9.976c2.272,3.958,3.662,8.503,4.167,13.637h-18.94c-1.179-5.051-3.453-8.839-6.818-11.364
		c-3.368-2.526-7.45-3.788-12.249-3.788c-4.462,0-8.25,0.864-11.364,2.589c-3.115,1.726-5.641,4.041-7.576,6.945
		c-1.938,2.904-3.346,6.209-4.229,9.912c-0.884,3.705-1.326,7.535-1.326,11.491c0,3.788,0.442,7.471,1.326,11.049
		c0.884,3.579,2.292,6.798,4.229,9.659c1.936,2.863,4.461,5.157,7.576,6.881c3.114,1.727,6.902,2.589,11.364,2.589
		c6.566,0,11.637-1.661,15.216-4.988c3.577-3.324,5.661-8.145,6.25-14.458h-19.951v-14.773h37.881v48.74h-12.626l-2.021-10.228
		C7792.088,3647.105,7788.175,3650.283,7783.881,3652.093z"/>
	<path fill="#FFFFFF" d="M7906.361,3562.631v16.667h-47.604v19.32h43.689v15.405h-43.689v22.097h48.614v16.667h-68.438v-90.156
		H7906.361z"/>
	<path fill="#FFFFFF" d="M7981.997,3562.631c4.041,0,7.68,0.653,10.922,1.957c3.24,1.306,6.018,3.093,8.333,5.366
		c2.315,2.272,4.083,4.905,5.304,7.892c1.219,2.989,1.831,6.209,1.831,9.659c0,5.303-1.117,9.892-3.347,13.763
		c-2.23,3.873-5.871,6.819-10.922,8.839v0.252c2.441,0.675,4.461,1.705,6.061,3.094c1.598,1.389,2.905,3.03,3.915,4.924
		c1.01,1.894,1.746,3.978,2.209,6.25c0.461,2.273,0.777,4.546,0.947,6.819c0.083,1.433,0.168,3.115,0.252,5.051
		c0.083,1.938,0.231,3.915,0.442,5.935c0.209,2.021,0.547,3.937,1.01,5.746c0.461,1.811,1.156,3.346,2.083,4.609h-19.824
		c-1.095-2.861-1.768-6.27-2.021-10.228c-0.252-3.956-0.632-7.744-1.137-11.364c-0.674-4.714-2.105-8.164-4.293-10.354
		c-2.19-2.188-5.767-3.283-10.733-3.283h-19.825v35.229h-19.824v-90.156H7981.997z M7974.925,3603.416
		c4.545,0,7.955-1.01,10.228-3.031c2.273-2.02,3.409-5.303,3.409-9.849c0-4.376-1.136-7.554-3.409-9.534
		c-2.273-1.977-5.683-2.967-10.228-2.967h-21.719v25.38H7974.925z"/>
</g>
<g>
	<path fill="#1D1D1B" d="M1665.483,4199.213c-9.957,0-18.302,2.272-25.034,6.808c-6.739,4.543-12.229,10.396-16.47,17.568
		c-4.248,7.178-7.247,15.083-9.004,23.717c-1.757,8.64-2.635,17.204-2.635,25.693c0,8.201,0.878,16.545,2.635,25.034
		c1.757,8.496,4.612,16.182,8.564,23.058c3.953,6.883,9.292,12.517,16.031,16.909c6.732,4.393,14.933,6.588,24.595,6.588
		c14.933,0,26.421-4.172,34.477-12.517c8.05-8.345,13.1-19.544,15.152-33.598h60.17c-4.104,30.161-15.811,53.143-35.136,68.954
		c-19.325,15.811-44.071,23.717-74.224,23.717c-16.984,0-32.576-2.854-46.774-8.564c-14.205-5.709-26.283-13.684-36.234-23.936
		c-9.957-10.246-17.719-22.468-23.277-36.673c-5.565-14.198-8.345-29.791-8.345-46.775c0-17.568,2.56-33.887,7.686-48.97
		c5.12-15.077,12.661-28.109,22.619-39.088c9.951-10.98,22.104-19.545,36.453-25.693c14.343-6.149,30.744-9.223,49.19-9.223
		c13.464,0,26.421,1.756,38.869,5.271c12.442,3.514,23.566,8.859,33.379,16.03c9.807,7.179,17.788,16.106,23.936,26.792
		c6.149,10.691,9.662,23.353,10.541,37.991h-61.049C1707.495,4212.245,1692.123,4199.213,1665.483,4199.213z"/>
	<path fill="#1D1D1B" d="M1917.139,4071.847v313.587h-62.366v-313.587H1917.139z"/>
	<path fill="#1D1D1B" d="M2077.005,4330.973c9.367,9.079,22.838,13.615,40.406,13.615c12.586,0,23.422-3.143,32.501-9.442
		c9.072-6.293,14.638-12.956,16.689-19.984h54.9c-8.784,27.231-22.255,46.706-40.406,58.414
		c-18.158,11.714-40.118,17.568-65.88,17.568c-17.863,0-33.969-2.854-48.312-8.564c-14.35-5.709-26.503-13.835-36.453-24.375
		c-9.958-10.541-17.643-23.127-23.058-37.771c-5.421-14.637-8.125-30.744-8.125-48.312c0-16.978,2.779-32.789,8.345-47.434
		c5.559-14.637,13.464-27.299,23.717-37.991c10.246-10.684,22.468-19.105,36.673-25.253c14.198-6.149,29.934-9.223,47.214-9.223
		c19.325,0,36.159,3.733,50.508,11.2c14.343,7.466,26.132,17.499,35.355,30.085c9.223,12.593,15.88,26.942,19.983,43.041
		c4.097,16.106,5.559,32.94,4.392,50.508h-163.821C2062.511,4307.256,2067.631,4321.901,2077.005,4330.973z M2147.496,4211.511
		c-7.467-8.194-18.817-12.298-34.038-12.298c-9.958,0-18.227,1.689-24.815,5.051c-6.588,3.369-11.858,7.542-15.811,12.517
		c-3.953,4.982-6.739,10.253-8.345,15.812c-1.613,5.565-2.567,10.541-2.855,14.933h101.455
		C2160.157,4231.715,2154.962,4219.712,2147.496,4211.511z"/>
	<path fill="#1D1D1B" d="M2362.479,4385.434l-77.738-227.065h65.441l47.872,155.037h0.879l47.873-155.037h61.927l-76.86,227.065
		H2362.479z"/>
	<path fill="#1D1D1B" d="M2645.317,4330.973c9.367,9.079,22.838,13.615,40.406,13.615c12.586,0,23.422-3.143,32.501-9.442
		c9.073-6.293,14.638-12.956,16.689-19.984h54.9c-8.784,27.231-22.255,46.706-40.406,58.414
		c-18.158,11.714-40.118,17.568-65.88,17.568c-17.863,0-33.969-2.854-48.312-8.564c-14.35-5.709-26.503-13.835-36.454-24.375
		c-9.958-10.541-17.643-23.127-23.058-37.771c-5.421-14.637-8.125-30.744-8.125-48.312c0-16.978,2.78-32.789,8.345-47.434
		c5.559-14.637,13.464-27.299,23.717-37.991c10.246-10.684,22.468-19.105,36.673-25.253c14.199-6.149,29.934-9.223,47.214-9.223
		c19.325,0,36.158,3.733,50.508,11.2c14.343,7.466,26.132,17.499,35.355,30.085c9.223,12.593,15.88,26.942,19.983,43.041
		c4.097,16.106,5.559,32.94,4.392,50.508h-163.821C2630.824,4307.256,2635.943,4321.901,2645.317,4330.973z M2715.809,4211.511
		c-7.467-8.194-18.817-12.298-34.038-12.298c-9.958,0-18.227,1.689-24.815,5.051c-6.588,3.369-11.858,7.542-15.811,12.517
		c-3.953,4.982-6.739,10.253-8.345,15.812c-1.613,5.565-2.566,10.541-2.855,14.933H2731.4
		C2728.47,4231.715,2723.275,4219.712,2715.809,4211.511z"/>
	<path fill="#1D1D1B" d="M2933.865,4158.369v42.163h0.878c2.923-7.027,6.876-13.54,11.858-19.544
		c4.975-5.998,10.685-11.124,17.128-15.372c6.437-4.241,13.32-7.535,20.642-9.881c7.315-2.34,14.933-3.514,22.839-3.514
		c4.097,0,8.633,0.734,13.615,2.196v57.974c-2.93-0.583-6.444-1.098-10.541-1.538c-4.104-0.439-8.056-0.659-11.858-0.659
		c-11.419,0-21.082,1.908-28.987,5.71c-7.906,3.809-14.274,9.003-19.105,15.591c-4.831,6.588-8.276,14.274-10.321,23.058
		c-2.052,8.784-3.074,18.302-3.074,28.548v102.333h-62.366v-227.065H2933.865z"/>
	<path fill="#1D1D1B" d="M3363.836,4199.213c-9.957,0-18.302,2.272-25.034,6.808c-6.739,4.543-12.229,10.396-16.47,17.568
		c-4.248,7.178-7.247,15.083-9.003,23.717c-1.757,8.64-2.635,17.204-2.635,25.693c0,8.201,0.878,16.545,2.635,25.034
		c1.756,8.496,4.612,16.182,8.564,23.058c3.953,6.883,9.292,12.517,16.031,16.909c6.732,4.393,14.933,6.588,24.595,6.588
		c14.933,0,26.421-4.172,34.477-12.517c8.05-8.345,13.101-19.544,15.153-33.598h60.17c-4.104,30.161-15.811,53.143-35.136,68.954
		c-19.324,15.811-44.071,23.717-74.224,23.717c-16.985,0-32.576-2.854-46.775-8.564c-14.205-5.709-26.283-13.684-36.234-23.936
		c-9.958-10.246-17.719-22.468-23.277-36.673c-5.565-14.198-8.345-29.791-8.345-46.775c0-17.568,2.56-33.887,7.686-48.97
		c5.119-15.077,12.661-28.109,22.619-39.088c9.95-10.98,22.104-19.545,36.453-25.693c14.343-6.149,30.744-9.223,49.19-9.223
		c13.464,0,26.42,1.756,38.869,5.271c12.442,3.514,23.566,8.859,33.379,16.03c9.806,7.179,17.787,16.106,23.936,26.792
		c6.149,10.691,9.662,23.353,10.541,37.991h-61.048C3405.849,4212.245,3390.477,4199.213,3363.836,4199.213z"/>
	<path fill="#1D1D1B" d="M3552.687,4222.71c5.558-14.781,13.464-27.374,23.717-37.771c10.246-10.39,22.543-18.446,36.893-24.156
		c14.343-5.709,30.449-8.564,48.312-8.564c17.856,0,34.038,2.855,48.531,8.564s26.86,13.766,37.112,24.156
		c10.245,10.396,18.151,22.989,23.717,37.771c5.559,14.789,8.345,31.259,8.345,49.41c0,18.158-2.786,34.552-8.345,49.19
		c-5.565,14.645-13.471,27.162-23.717,37.552c-10.252,10.396-22.619,18.378-37.112,23.936s-30.675,8.345-48.531,8.345
		c-17.863,0-33.969-2.787-48.312-8.345c-14.35-5.558-26.647-13.54-36.893-23.936c-10.253-10.39-18.158-22.907-23.717-37.552
		c-5.565-14.638-8.345-31.032-8.345-49.19C3544.342,4253.97,3547.121,4237.5,3552.687,4222.71z M3609.343,4298.692
		c1.757,8.64,4.756,16.401,9.003,23.278c4.241,6.882,9.882,12.373,16.909,16.47c7.027,4.104,15.811,6.148,26.352,6.148
		s19.393-2.044,26.572-6.148c7.171-4.097,12.881-9.587,17.129-16.47c4.241-6.877,7.247-14.638,9.003-23.278
		c1.757-8.633,2.635-17.492,2.635-26.571c0-9.072-0.878-18.007-2.635-26.791c-1.757-8.784-4.762-16.539-9.003-23.278
		c-4.248-6.731-9.958-12.222-17.129-16.47c-7.178-4.241-16.031-6.369-26.572-6.369s-19.325,2.128-26.352,6.369
		c-7.027,4.248-12.668,9.738-16.909,16.47c-4.248,6.739-7.247,14.494-9.003,23.278c-1.757,8.784-2.635,17.719-2.635,26.791
		C3606.708,4281.2,3607.586,4290.059,3609.343,4298.692z"/>
	<path fill="#1D1D1B" d="M3861,4228.201c0.878-14.638,4.536-26.791,10.98-36.453c6.437-9.663,14.637-17.417,24.595-23.278
		c9.951-5.854,21.15-10.026,33.599-12.517c12.442-2.484,24.959-3.733,37.552-3.733c11.419,0,22.982,0.81,34.697,2.416
		c11.708,1.613,22.399,4.763,32.062,9.443c9.662,4.687,17.568,11.2,23.717,19.544c6.149,8.345,9.223,19.4,9.223,33.159v118.145
		c0,10.253,0.583,20.059,1.757,29.426c1.167,9.374,3.219,16.401,6.149,21.082h-63.244c-1.173-3.514-2.127-7.096-2.855-10.761
		c-0.734-3.657-1.249-7.39-1.537-11.199c-9.958,10.252-21.672,17.423-35.136,21.521c-13.471,4.096-27.23,6.148-41.284,6.148
		c-10.836,0-20.938-1.318-30.304-3.953c-9.375-2.635-17.568-6.731-24.595-12.297c-7.027-5.558-12.517-12.586-16.47-21.082
		c-3.953-8.489-5.929-18.59-5.929-30.304c0-12.881,2.265-23.498,6.807-31.842c4.536-8.344,10.39-15.001,17.568-19.983
		c7.171-4.976,15.372-8.708,24.595-11.2c9.223-2.484,18.515-4.46,27.889-5.929c9.367-1.462,18.591-2.635,27.67-3.514
		c9.072-0.879,17.129-2.196,24.156-3.953c7.027-1.757,12.586-4.316,16.689-7.686c4.097-3.363,5.998-8.269,5.71-14.713
		c0-6.731-1.098-12.078-3.294-16.03c-2.196-3.953-5.126-7.027-8.784-9.223c-3.665-2.196-7.906-3.658-12.737-4.392
		c-4.832-0.728-10.033-1.098-15.592-1.098c-12.297,0-21.96,2.635-28.987,7.905c-7.027,5.271-11.131,14.055-12.298,26.352H3861z
		 M4005.057,4274.317c-2.635,2.347-5.929,4.172-9.882,5.489c-3.953,1.318-8.2,2.417-12.737,3.294
		c-4.543,0.878-9.299,1.613-14.274,2.196c-4.982,0.59-9.958,1.318-14.933,2.196c-4.687,0.878-9.299,2.052-13.835,3.514
		c-4.543,1.469-8.496,3.445-11.858,5.929c-3.369,2.491-6.08,5.642-8.125,9.443c-2.052,3.808-3.074,8.64-3.074,14.493
		c0,5.565,1.022,10.252,3.074,14.054c2.045,3.809,4.831,6.808,8.345,9.003c3.514,2.196,7.611,3.733,12.297,4.611
		c4.68,0.879,9.511,1.318,14.494,1.318c12.298,0,21.809-2.045,28.548-6.148c6.732-4.097,11.708-9.004,14.933-14.713
		c3.219-5.709,5.195-11.487,5.929-17.348c0.728-5.854,1.098-10.541,1.098-14.055V4274.317z"/>
	<path fill="#1D1D1B" d="M4268.131,4199.213c-9.957,0-18.302,2.272-25.034,6.808c-6.739,4.543-12.229,10.396-16.47,17.568
		c-4.248,7.178-7.247,15.083-9.003,23.717c-1.757,8.64-2.635,17.204-2.635,25.693c0,8.201,0.878,16.545,2.635,25.034
		c1.756,8.496,4.611,16.182,8.564,23.058c3.953,6.883,9.292,12.517,16.031,16.909c6.732,4.393,14.933,6.588,24.595,6.588
		c14.933,0,26.42-4.172,34.477-12.517c8.05-8.345,13.101-19.544,15.152-33.598h60.17c-4.104,30.161-15.811,53.143-35.136,68.954
		c-19.325,15.811-44.071,23.717-74.225,23.717c-16.984,0-32.576-2.854-46.774-8.564c-14.205-5.709-26.283-13.684-36.233-23.936
		c-9.958-10.246-17.719-22.468-23.278-36.673c-5.565-14.198-8.345-29.791-8.345-46.775c0-17.568,2.56-33.887,7.686-48.97
		c5.12-15.077,12.661-28.109,22.619-39.088c9.951-10.98,22.104-19.545,36.453-25.693c14.343-6.149,30.744-9.223,49.19-9.223
		c13.464,0,26.42,1.756,38.869,5.271c12.442,3.514,23.566,8.859,33.379,16.03c9.807,7.179,17.787,16.106,23.937,26.792
		c6.148,10.691,9.662,23.353,10.541,37.991h-61.048C4310.144,4212.245,4294.771,4199.213,4268.131,4199.213z"/>
	<path fill="#1D1D1B" d="M4518.031,4071.847v118.144h1.317c7.906-13.176,18.007-22.762,30.305-28.767
		c12.297-5.998,24.299-9.003,36.014-9.003c16.689,0,30.373,2.271,41.064,6.808c10.685,4.543,19.105,10.835,25.254,18.886
		c6.149,8.056,10.465,17.862,12.956,29.426c2.485,11.57,3.734,24.376,3.734,38.43v139.665h-62.366v-128.246
		c0-18.735-2.93-32.72-8.784-41.943c-5.861-9.223-16.25-13.835-31.183-13.835c-16.985,0-29.282,5.051-36.893,15.152
		c-7.617,10.102-11.419,26.723-11.419,49.849v119.022h-62.366v-313.587H4518.031z"/>
	<path fill="#1D1D1B" d="M4826.781,4330.973c9.368,9.079,22.838,13.615,40.406,13.615c12.586,0,23.421-3.143,32.501-9.442
		c9.072-6.293,14.637-12.956,16.689-19.984h54.9c-8.784,27.231-22.255,46.706-40.406,58.414
		c-18.158,11.714-40.118,17.568-65.879,17.568c-17.863,0-33.97-2.854-48.312-8.564c-14.35-5.709-26.502-13.835-36.453-24.375
		c-9.958-10.541-17.644-23.127-23.058-37.771c-5.421-14.637-8.125-30.744-8.125-48.312c0-16.978,2.778-32.789,8.344-47.434
		c5.559-14.637,13.464-27.299,23.717-37.991c10.246-10.684,22.467-19.105,36.673-25.253c14.198-6.149,29.934-9.223,47.214-9.223
		c19.325,0,36.158,3.733,50.508,11.2c14.343,7.466,26.132,17.499,35.355,30.085c9.223,12.593,15.879,26.942,19.983,43.041
		c4.097,16.106,5.559,32.94,4.392,50.508h-163.821C4812.287,4307.256,4817.407,4321.901,4826.781,4330.973z M4897.272,4211.511
		c-7.466-8.194-18.817-12.298-34.038-12.298c-9.958,0-18.227,1.689-24.814,5.051c-6.588,3.369-11.858,7.542-15.811,12.517
		c-3.953,4.982-6.738,10.253-8.345,15.812c-1.613,5.565-2.566,10.541-2.855,14.933h101.455
		C4909.934,4231.715,4904.738,4219.712,4897.272,4211.511z"/>
	<path fill="#1D1D1B" d="M5115.329,4158.369v31.622h1.317c7.906-13.176,18.152-22.762,30.744-28.767
		c12.586-5.998,25.474-9.003,38.649-9.003c16.689,0,30.374,2.271,41.065,6.808c10.684,4.543,19.105,10.835,25.253,18.886
		c6.149,8.056,10.465,17.862,12.956,29.426c2.485,11.57,3.734,24.376,3.734,38.43v139.665h-62.366v-128.246
		c0-18.735-2.931-32.72-8.784-41.943c-5.861-9.223-16.25-13.835-31.183-13.835c-16.984,0-29.282,5.051-36.893,15.152
		c-7.617,10.102-11.419,26.723-11.419,49.849v119.022h-62.366v-227.065H5115.329z"/>
</g>
</svg>
